<svg width="32" height="40" viewBox="0 0 32 40" fill="none" xmlns="http://www.w3.org/2000/svg">
<path d="M16 23.9038C20.2282 23.9038 23.6667 20.4653 23.6667 16.2371C23.6667 12.009 20.2282 8.57048 16 8.57048C11.7719 8.57048 8.33338 12.009 8.33338 16.2371C8.33338 20.4653 11.7719 23.9038 16 23.9038ZM16 12.4038C18.1141 12.4038 19.8334 14.1231 19.8334 16.2371C19.8334 18.3512 18.1141 20.0705 16 20.0705C13.886 20.0705 12.1667 18.3512 12.1667 16.2371C12.1667 14.1231 13.886 12.4038 16 12.4038Z" fill="white"/>
<path d="M14.8885 38.8806C15.2129 39.1123 15.6015 39.2368 16.0001 39.2368C16.3987 39.2368 16.7874 39.1123 17.1118 38.8806C17.6945 38.4686 31.389 28.5805 31.3335 16.2371C31.3335 7.78273 24.4545 0.903809 16.0001 0.903809C7.54571 0.903809 0.666795 7.78273 0.666795 16.2276C0.611211 28.5805 14.3058 38.4686 14.8885 38.8806ZM16.0001 4.73714C22.3424 4.73714 27.5001 9.89489 27.5001 16.2467C27.5404 24.7529 19.0898 32.3908 16.0001 34.8959C12.9124 32.3889 4.45988 24.7491 4.50013 16.2371C4.50013 9.89489 9.65788 4.73714 16.0001 4.73714Z" fill="white"/>
</svg>
